<svg width="40" height="40" viewBox="0 0 40 40" fill="none" xmlns="http://www.w3.org/2000/svg">
<circle cx="20" cy="20" r="15" fill="#3A6FB6"/>
<g clip-path="url(#clip0_3745_18377)">
<path d="M26.7277 19.0139H21.8443V14.1295C21.8444 13.3494 21.2095 12.7148 20.4286 12.7148C19.6477 12.7148 19.0129 13.3494 19.0129 14.1295V19.0139H14.1301C13.3495 19.0139 12.7144 19.649 12.7144 20.4291C12.7144 21.2089 13.3492 21.8438 14.1301 21.8438H19.0129V26.7282C19.0129 27.5086 19.6475 28.1434 20.4286 28.1434C21.2095 28.1434 21.8443 27.5085 21.8443 26.7282V21.8438H26.7277C27.5081 21.8438 28.1429 21.2089 28.1429 20.4291C28.1429 19.649 27.5081 19.0139 26.7277 19.0139Z" fill="white"/>
</g>
<defs>
<clipPath id="clip0_3745_18377">
<rect width="15.4286" height="15.4286" fill="white" transform="translate(12.7144 12.7148)"/>
</clipPath>
</defs>
</svg>
