<svg width="25" height="26" viewBox="0 0 25 26" fill="none" xmlns="http://www.w3.org/2000/svg">
<path d="M11.6052 19.1208H13.5766V11.7914H11.6052V19.1208ZM12.5003 9.66429C12.8135 9.66429 13.076 9.56127 13.2878 9.35523C13.4996 9.14917 13.6055 8.89385 13.6055 8.58927C13.6055 8.26213 13.4996 7.99111 13.2879 7.77621C13.0761 7.56129 12.8138 7.45383 12.5008 7.45383C12.1824 7.45383 11.9185 7.56129 11.7091 7.77621C11.4997 7.99111 11.395 8.26092 11.395 8.58564C11.395 8.89324 11.5009 9.14992 11.7128 9.35568C11.9246 9.56142 12.1872 9.66429 12.5003 9.66429ZM12.5093 25.2636C10.8135 25.2636 9.22216 24.9426 7.73512 24.3006C6.24809 23.6586 4.94753 22.7806 3.83345 21.6665C2.71936 20.5524 1.84132 19.2514 1.19931 17.7635C0.557322 16.2757 0.236328 14.683 0.236328 12.9856C0.236328 11.2881 0.557322 9.69515 1.19931 8.20662C1.84132 6.71807 2.71898 5.42166 3.8323 4.31739C4.94564 3.21313 6.24642 2.33892 7.73464 1.69476C9.22288 1.0506 10.8159 0.728516 12.5137 0.728516C14.2116 0.728516 15.8051 1.05042 17.2942 1.69422C18.7833 2.338 20.0798 3.2117 21.1837 4.31533C22.2876 5.41896 23.1615 6.71674 23.8055 8.20867C24.4494 9.70062 24.7714 11.2949 24.7714 12.9917C24.7714 14.688 24.4493 16.2797 23.8052 17.7667C23.161 19.2536 22.2868 20.552 21.1825 21.6618C20.0783 22.7716 18.7806 23.6493 17.2895 24.295C15.7984 24.9407 14.205 25.2636 12.5093 25.2636Z" fill="#C72222"/>
</svg>
