<svg width="19" height="20" viewBox="0 0 19 20" fill="none" xmlns="http://www.w3.org/2000/svg">
<path d="M15.928 1.53224H14.8631V2.29837C14.8631 2.70475 14.7016 3.09448 14.4143 3.38183C14.1269 3.66919 13.7372 3.83062 13.3308 3.83062C12.9244 3.83062 12.5347 3.66919 12.2473 3.38183C11.96 3.09448 11.7985 2.70475 11.7985 2.29837V1.53224H7.20176V2.29837C7.20176 2.70475 7.04033 3.09448 6.75298 3.38183C6.46562 3.66919 6.07589 3.83062 5.66951 3.83062C5.26313 3.83062 4.87339 3.66919 4.58604 3.38183C4.29868 3.09448 4.13725 2.70475 4.13725 2.29837V1.53224H3.07233C2.25957 1.53224 1.4801 1.8551 0.905389 2.42981C0.33068 3.00452 0.0078125 3.78399 0.0078125 4.59675V6.12901H19.0002V4.59675C19.0002 4.19367 18.9206 3.79454 18.7661 3.42224C18.6117 3.04994 18.3852 2.71177 18.0999 2.4271C17.8145 2.14243 17.4758 1.91686 17.1031 1.76331C16.7304 1.60975 16.3311 1.53123 15.928 1.53224Z" fill="#2E3338"/>
<path d="M0 17.1611C0 17.7707 0.242151 18.3553 0.673182 18.7863C1.10421 19.2174 1.68882 19.4595 2.29839 19.4595H16.7016C17.3112 19.4595 17.8958 19.2174 18.3268 18.7863C18.7579 18.3553 19 17.7707 19 17.1611V7.66113H0V17.1611ZM14.0968 9.57646C14.4016 9.57646 14.6939 9.69753 14.9094 9.91305C15.1249 10.1286 15.246 10.4209 15.246 10.7256C15.246 11.0304 15.1249 11.3227 14.9094 11.5383C14.6939 11.7538 14.4016 11.8748 14.0968 11.8748C13.792 11.8748 13.4997 11.7538 13.2842 11.5383C13.0687 11.3227 12.9476 11.0304 12.9476 10.7256C12.9476 10.4209 13.0687 10.1286 13.2842 9.91305C13.4997 9.69753 13.792 9.57646 14.0968 9.57646ZM14.0968 14.1732C14.4016 14.1732 14.6939 14.2943 14.9094 14.5098C15.1249 14.7253 15.246 15.0176 15.246 15.3224C15.246 15.6272 15.1249 15.9195 14.9094 16.135C14.6939 16.3505 14.4016 16.4716 14.0968 16.4716C13.792 16.4716 13.4997 16.3505 13.2842 16.135C13.0687 15.9195 12.9476 15.6272 12.9476 15.3224C12.9476 15.0176 13.0687 14.7253 13.2842 14.5098C13.4997 14.2943 13.792 14.1732 14.0968 14.1732ZM9.5 9.57646C9.80479 9.57646 10.0971 9.69753 10.3126 9.91305C10.5281 10.1286 10.6492 10.4209 10.6492 10.7256C10.6492 11.0304 10.5281 11.3227 10.3126 11.5383C10.0971 11.7538 9.80479 11.8748 9.5 11.8748C9.19522 11.8748 8.90291 11.7538 8.6874 11.5383C8.47188 11.3227 8.35081 11.0304 8.35081 10.7256C8.35081 10.4209 8.47188 10.1286 8.6874 9.91305C8.90291 9.69753 9.19522 9.57646 9.5 9.57646ZM9.5 14.1732C9.80479 14.1732 10.0971 14.2943 10.3126 14.5098C10.5281 14.7253 10.6492 15.0176 10.6492 15.3224C10.6492 15.6272 10.5281 15.9195 10.3126 16.135C10.0971 16.3505 9.80479 16.4716 9.5 16.4716C9.19522 16.4716 8.90291 16.3505 8.6874 16.135C8.47188 15.9195 8.35081 15.6272 8.35081 15.3224C8.35081 15.0176 8.47188 14.7253 8.6874 14.5098C8.90291 14.2943 9.19522 14.1732 9.5 14.1732ZM4.90323 9.57646C5.20801 9.57646 5.50031 9.69753 5.71583 9.91305C5.93134 10.1286 6.05242 10.4209 6.05242 10.7256C6.05242 11.0304 5.93134 11.3227 5.71583 11.5383C5.50031 11.7538 5.20801 11.8748 4.90323 11.8748C4.59844 11.8748 4.30614 11.7538 4.09062 11.5383C3.87511 11.3227 3.75403 11.0304 3.75403 10.7256C3.75403 10.4209 3.87511 10.1286 4.09062 9.91305C4.30614 9.69753 4.59844 9.57646 4.90323 9.57646ZM4.90323 14.1732C5.20801 14.1732 5.50031 14.2943 5.71583 14.5098C5.93134 14.7253 6.05242 15.0176 6.05242 15.3224C6.05242 15.6272 5.93134 15.9195 5.71583 16.135C5.50031 16.3505 5.20801 16.4716 4.90323 16.4716C4.59844 16.4716 4.30614 16.3505 4.09062 16.135C3.87511 15.9195 3.75403 15.6272 3.75403 15.3224C3.75403 15.0176 3.87511 14.7253 4.09062 14.5098C4.30614 14.2943 4.59844 14.1732 4.90323 14.1732Z" fill="#2E3338"/>
<path d="M5.67043 3.06452C5.87362 3.06452 6.06848 2.9838 6.21216 2.84012C6.35584 2.69644 6.43655 2.50158 6.43655 2.29839V0.766129C6.43655 0.562939 6.35584 0.368071 6.21216 0.224394C6.06848 0.0807169 5.87362 0 5.67043 0C5.46724 0 5.27237 0.0807169 5.12869 0.224394C4.98501 0.368071 4.9043 0.562939 4.9043 0.766129V2.29839C4.9043 2.50158 4.98501 2.69644 5.12869 2.84012C5.27237 2.9838 5.46724 3.06452 5.67043 3.06452Z" fill="#2E3338"/>
<path d="M13.3325 3.06452C13.5357 3.06452 13.7306 2.9838 13.8743 2.84012C14.0179 2.69644 14.0987 2.50158 14.0987 2.29839V0.766129C14.0987 0.562939 14.0179 0.368071 13.8743 0.224394C13.7306 0.0807169 13.5357 0 13.3325 0C13.1293 0 12.9345 0.0807169 12.7908 0.224394C12.6471 0.368071 12.5664 0.562939 12.5664 0.766129V2.29839C12.5664 2.50158 12.6471 2.69644 12.7908 2.84012C12.9345 2.9838 13.1293 3.06452 13.3325 3.06452Z" fill="#2E3338"/>
</svg>
