<svg width="16" height="16" viewBox="0 0 16 16" fill="none" xmlns="http://www.w3.org/2000/svg">
<path d="M0.352872 0.880217C0.823353 0.40974 1.58619 0.40972 2.05669 0.880217L7.73605 6.55959L13.4154 0.880217C13.8859 0.409724 14.6487 0.409715 15.1192 0.880217C15.5897 1.3507 15.5897 2.11352 15.1192 2.58402L9.43986 8.26339L15.1192 13.9427C15.5897 14.4132 15.5897 15.1761 15.1192 15.6466C14.6487 16.1171 13.8859 16.1171 13.4154 15.6466L7.73605 9.96719L2.05669 15.6466C1.58619 16.1171 0.823357 16.1171 0.352876 15.6466C-0.117629 15.1761 -0.117621 14.4132 0.352876 13.9427L6.03224 8.26339L0.352876 2.58402C-0.117617 2.11352 -0.117633 1.35073 0.352872 0.880217Z" fill="#2E3338"/>
</svg>
