<svg width="33" height="32" viewBox="0 0 33 32" fill="none" xmlns="http://www.w3.org/2000/svg">
<path d="M8.69603 0H19.403L28.4663 9.45593V27.8372C28.4663 30.1365 26.6028 32 24.3035 32H8.69603C6.39675 32 4.5332 30.1364 4.5332 27.8372V4.16283C4.5332 1.86359 6.39675 0 8.69603 0Z" fill="#0263D1"/>
<path opacity="0.302" fill-rule="evenodd" clip-rule="evenodd" d="M19.3906 0V9.37826H28.4669L19.3906 0Z" fill="white"/>
<path d="M8.39844 22.8324V17.535H10.275C10.6503 17.535 10.9997 17.5911 11.3232 17.6946C11.6468 17.8025 11.9401 17.9578 12.2033 18.1649C12.4664 18.3719 12.6735 18.648 12.8245 18.9931C12.9755 19.3382 13.0531 19.7351 13.0531 20.1837C13.0531 20.6323 12.9755 21.0292 12.8245 21.3743C12.6735 21.7194 12.4664 21.9955 12.2033 22.2026C11.9402 22.4096 11.6468 22.5649 11.3232 22.6728C10.9997 22.7763 10.6503 22.8324 10.275 22.8324H8.39844ZM9.72278 21.6806H10.1153C10.3267 21.6806 10.5252 21.6547 10.702 21.6073C10.8832 21.5555 11.0471 21.4736 11.2024 21.3657C11.3577 21.2578 11.4785 21.1026 11.5647 20.8998C11.6553 20.7014 11.6984 20.4598 11.6984 20.1837C11.6984 19.9076 11.6553 19.6661 11.5647 19.4633C11.4785 19.2649 11.3577 19.1096 11.2024 19.0017C11.0471 18.8896 10.8832 18.8119 10.702 18.7601C10.5252 18.7127 10.3267 18.6868 10.1153 18.6868H9.72278V21.6806ZM16.2669 22.8928C15.4688 22.8928 14.8088 22.634 14.2869 22.1206C13.7649 21.6073 13.506 20.9602 13.506 20.1837C13.506 19.4073 13.7649 18.7602 14.2869 18.2469C14.8088 17.7335 15.4688 17.4747 16.2669 17.4747C17.052 17.4747 17.7034 17.7335 18.2254 18.2469C18.743 18.7602 19.0019 19.4073 19.0019 20.1837C19.0019 20.9602 18.743 21.6073 18.2254 22.1206C17.7034 22.634 17.052 22.8928 16.2669 22.8928ZM15.2488 21.301C15.5119 21.5943 15.8484 21.741 16.2582 21.741C16.6681 21.741 17.0002 21.5943 17.2634 21.301C17.5265 21.0033 17.6559 20.6323 17.6559 20.1837C17.6559 19.7351 17.5265 19.3641 17.2634 19.0664C17.0002 18.7731 16.6681 18.6264 16.2582 18.6264C15.8484 18.6264 15.5119 18.7731 15.2488 19.0664C14.9857 19.3641 14.8519 19.7351 14.8519 20.1837C14.8519 20.6323 14.9857 21.0033 15.2488 21.301ZM22.1509 22.8928C21.3788 22.8928 20.736 22.6512 20.227 22.1767C19.7136 21.6979 19.4592 21.0335 19.4592 20.1837C19.4592 19.3382 19.718 18.6739 20.2356 18.195C20.7576 17.7162 21.3918 17.4746 22.151 17.4746C22.8369 17.4746 23.3977 17.6428 23.842 17.9836C24.282 18.3201 24.5366 18.7688 24.6012 19.3295L23.264 19.6013C23.2079 19.308 23.0741 19.0707 22.8671 18.8938C22.66 18.717 22.4184 18.6264 22.1423 18.6264C21.7627 18.6264 21.4478 18.7601 21.1933 19.0319C20.9388 19.308 20.8093 19.6876 20.8093 20.1837C20.8093 20.6798 20.9388 21.0594 21.189 21.3312C21.4435 21.6072 21.7584 21.741 22.1423 21.741C22.4184 21.741 22.6557 21.6634 22.8498 21.5081C23.0439 21.3528 23.1647 21.1457 23.2164 20.8869L24.5839 21.1975C24.4588 21.7324 24.1827 22.1465 23.7514 22.4441C23.3243 22.7418 22.7894 22.8928 22.1509 22.8928Z" fill="white"/>
</svg>
