<svg width="22" height="8" viewBox="0 0 22 8" fill="none" xmlns="http://www.w3.org/2000/svg">
<path d="M0.873535 7.54099V0.919256H3.21919C3.6883 0.919256 4.12512 0.989355 4.52954 1.11879C4.93396 1.25358 5.30063 1.4477 5.62959 1.70657C5.9585 1.96538 6.21737 2.31052 6.40609 2.74188C6.5948 3.17323 6.69189 3.66933 6.69189 4.23012C6.69189 4.79092 6.5948 5.28701 6.40609 5.71837C6.21737 6.14973 5.9585 6.49487 5.62959 6.75368C5.30068 7.0125 4.93396 7.20662 4.52954 7.34146C4.12512 7.47089 3.68835 7.54099 3.21919 7.54099H0.873535ZM2.52897 6.10126H3.01966C3.28388 6.10126 3.53193 6.06892 3.75299 6.00958C3.97946 5.94489 4.18435 5.84245 4.37848 5.70761C4.5726 5.57277 4.72356 5.3787 4.83141 5.12524C4.94467 4.87719 4.99855 4.57521 4.99855 4.23012C4.99855 3.88504 4.94462 3.58306 4.83141 3.32961C4.72356 3.08156 4.5726 2.88743 4.37848 2.75264C4.18435 2.61244 3.97946 2.51541 3.75299 2.45066C3.53193 2.39133 3.28388 2.35899 3.01966 2.35899H2.52897V6.10126ZM10.7091 7.6165C9.71155 7.6165 8.88653 7.29294 8.23406 6.65129C7.58159 6.00958 7.25804 5.20074 7.25804 4.23018C7.25804 3.25956 7.58159 2.45072 8.23406 1.80906C8.88653 1.16736 9.71155 0.84385 10.7091 0.84385C11.6905 0.84385 12.5047 1.16741 13.1572 1.80906C13.8043 2.45077 14.1278 3.25961 14.1278 4.23018C14.1278 5.20074 13.8043 6.00963 13.1572 6.65129C12.5047 7.29294 11.6905 7.6165 10.7091 7.6165ZM9.43651 5.62674C9.76542 5.99341 10.186 6.17677 10.6983 6.17677C11.2106 6.17677 11.6257 5.99341 11.9547 5.62674C12.2836 5.25467 12.4454 4.79092 12.4454 4.23012C12.4454 3.66933 12.2836 3.20558 11.9547 2.83351C11.6258 2.46684 11.2106 2.28348 10.6983 2.28348C10.186 2.28348 9.76542 2.46684 9.43651 2.83351C9.1076 3.20558 8.94041 3.66933 8.94041 4.23012C8.94041 4.79092 9.1076 5.25467 9.43651 5.62674ZM18.0642 7.6165C17.099 7.6165 16.2955 7.31452 15.6592 6.72139C15.0175 6.12284 14.6994 5.29242 14.6994 4.23012C14.6994 3.17323 15.023 2.34281 15.67 1.74427C16.3225 1.14573 17.1152 0.84375 18.0642 0.84375C18.9216 0.84375 19.6226 1.05405 20.178 1.48005C20.728 1.90064 21.0462 2.46143 21.127 3.16242L19.4554 3.50215C19.3853 3.13548 19.2181 2.83891 18.9593 2.6178C18.7005 2.39669 18.3985 2.28348 18.0534 2.28348C17.5789 2.28348 17.1852 2.45067 16.8671 2.79034C16.5489 3.13543 16.3872 3.60995 16.3872 4.23007C16.3872 4.8502 16.5489 5.32472 16.8617 5.66445C17.1798 6.00953 17.5735 6.17672 18.0534 6.17672C18.3984 6.17672 18.6951 6.07968 18.9377 5.88556C19.1803 5.69143 19.3314 5.43262 19.396 5.10907L21.1054 5.49731C20.949 6.16596 20.6039 6.68364 20.0647 7.05566C19.5309 7.42778 18.8622 7.6165 18.0642 7.6165Z" fill="white"/>
</svg>
