<svg width="90" height="110" viewBox="0 0 90 110" fill="none" xmlns="http://www.w3.org/2000/svg">
<path d="M29.715 50.2727V59H28.3983V50.2727H29.715ZM31.5304 59V52.4545H32.7534V53.5199H32.8343C32.9707 53.1591 33.1937 52.8778 33.5034 52.6761C33.813 52.4716 34.1838 52.3693 34.6156 52.3693C35.0531 52.3693 35.4196 52.4716 35.715 52.6761C36.0133 52.8807 36.2335 53.1619 36.3755 53.5199H36.4437C36.6 53.1705 36.8485 52.892 37.1895 52.6847C37.5304 52.4744 37.9366 52.3693 38.4082 52.3693C39.002 52.3693 39.4863 52.5554 39.8613 52.9276C40.2392 53.2997 40.4281 53.8608 40.4281 54.6108V59H39.1539V54.7301C39.1539 54.2869 39.0332 53.9659 38.7917 53.767C38.5502 53.5682 38.2619 53.4688 37.9267 53.4688C37.5119 53.4688 37.1895 53.5966 36.9593 53.8523C36.7292 54.1051 36.6142 54.4304 36.6142 54.8281V59H35.3443V54.6491C35.3443 54.294 35.2335 54.0085 35.0119 53.7926C34.7903 53.5767 34.502 53.4688 34.1468 53.4688C33.9054 53.4688 33.6824 53.5327 33.4778 53.6605C33.2761 53.7855 33.1127 53.9602 32.9877 54.1847C32.8656 54.4091 32.8045 54.669 32.8045 54.9645V59H31.5304ZM44.0407 59.1449C43.6259 59.1449 43.2509 59.0682 42.9157 58.9148C42.5804 58.7585 42.3148 58.5327 42.1188 58.2372C41.9256 57.9418 41.829 57.5795 41.829 57.1506C41.829 56.7812 41.9 56.4773 42.0421 56.2386C42.1841 56 42.3759 55.8111 42.6174 55.6719C42.8588 55.5327 43.1287 55.4276 43.427 55.3565C43.7253 55.2855 44.0293 55.2315 44.339 55.1946C44.731 55.1491 45.0492 55.1122 45.2935 55.0838C45.5378 55.0526 45.7154 55.0028 45.8262 54.9347C45.937 54.8665 45.9924 54.7557 45.9924 54.6023V54.5724C45.9924 54.2003 45.8873 53.9119 45.677 53.7074C45.4696 53.5028 45.16 53.4006 44.748 53.4006C44.3191 53.4006 43.981 53.4957 43.7338 53.6861C43.4895 53.8736 43.3205 54.0824 43.2267 54.3125L42.0293 54.0398C42.1713 53.642 42.3787 53.321 42.6515 53.0767C42.927 52.8295 43.2438 52.6506 43.6017 52.5398C43.9597 52.4261 44.3361 52.3693 44.731 52.3693C44.9924 52.3693 45.2694 52.4006 45.562 52.4631C45.8574 52.5227 46.133 52.6335 46.3887 52.7955C46.6472 52.9574 46.8588 53.1889 47.0236 53.4901C47.1884 53.7884 47.2708 54.1761 47.2708 54.6534V59H46.0265V58.1051H45.9753C45.8929 58.2699 45.7694 58.4318 45.6046 58.5909C45.4398 58.75 45.2282 58.8821 44.9696 58.9872C44.7111 59.0923 44.4015 59.1449 44.0407 59.1449ZM44.3176 58.1222C44.6699 58.1222 44.9711 58.0526 45.2211 57.9134C45.4739 57.7741 45.6657 57.5923 45.7963 57.3679C45.9299 57.1406 45.9966 56.8977 45.9966 56.6392V55.7955C45.9512 55.8409 45.8631 55.8835 45.7324 55.9233C45.6046 55.9602 45.4583 55.9929 45.2935 56.0213C45.1287 56.0469 44.9682 56.071 44.812 56.0938C44.6557 56.1136 44.525 56.1307 44.4199 56.1449C44.1728 56.1761 43.9469 56.2287 43.7424 56.3026C43.5407 56.3764 43.3787 56.483 43.2566 56.6222C43.1373 56.7585 43.0776 56.9403 43.0776 57.1676C43.0776 57.483 43.1941 57.7216 43.427 57.8835C43.66 58.0426 43.9569 58.1222 44.3176 58.1222ZM51.7122 61.5909C51.1923 61.5909 50.7449 61.5227 50.3699 61.3864C49.9977 61.25 49.6937 61.0696 49.4579 60.8452C49.2221 60.6207 49.046 60.375 48.9295 60.108L50.0247 59.6562C50.1014 59.7812 50.2037 59.9134 50.3315 60.0526C50.4622 60.1946 50.6383 60.3153 50.8599 60.4148C51.0843 60.5142 51.3727 60.5639 51.725 60.5639C52.2079 60.5639 52.6071 60.446 52.9224 60.2102C53.2377 59.9773 53.3954 59.6051 53.3954 59.0938V57.8068H53.3145C53.2377 57.946 53.127 58.1009 52.9821 58.2713C52.84 58.4418 52.644 58.5895 52.394 58.7145C52.144 58.8395 51.8187 58.902 51.4181 58.902C50.9011 58.902 50.4352 58.7812 50.0204 58.5398C49.6085 58.2955 49.2818 57.9361 49.0403 57.4616C48.8017 56.9844 48.6824 56.3977 48.6824 55.7017C48.6824 55.0057 48.8002 54.4091 49.036 53.9119C49.2747 53.4148 49.6014 53.0341 50.0162 52.7699C50.4309 52.5028 50.9011 52.3693 51.4267 52.3693C51.8329 52.3693 52.161 52.4375 52.411 52.5739C52.661 52.7074 52.8556 52.8636 52.9949 53.0426C53.1369 53.2216 53.2463 53.3793 53.323 53.5156H53.4167V52.4545H54.6653V59.1449C54.6653 59.7074 54.5346 60.169 54.2733 60.5298C54.0119 60.8906 53.6582 61.1577 53.2122 61.331C52.769 61.5043 52.269 61.5909 51.7122 61.5909ZM51.6994 57.8452C52.0659 57.8452 52.3755 57.7599 52.6284 57.5895C52.8841 57.4162 53.0772 57.169 53.2079 56.848C53.3414 56.5241 53.4082 56.1364 53.4082 55.6847C53.4082 55.2443 53.3429 54.8565 53.2122 54.5213C53.0815 54.1861 52.8897 53.9247 52.6369 53.7372C52.3841 53.5469 52.0716 53.4517 51.6994 53.4517C51.3159 53.4517 50.9963 53.5511 50.7406 53.75C50.4849 53.946 50.2917 54.2131 50.161 54.5511C50.0332 54.8892 49.9693 55.267 49.9693 55.6847C49.9693 56.1136 50.0346 56.4901 50.1653 56.8139C50.296 57.1378 50.4892 57.3906 50.7449 57.5724C51.0034 57.7543 51.3216 57.8452 51.6994 57.8452ZM59.1951 59.1321C58.5502 59.1321 57.9949 58.9943 57.5289 58.7188C57.0659 58.4403 56.7079 58.0497 56.4551 57.5469C56.2051 57.0412 56.0801 56.4489 56.0801 55.7699C56.0801 55.0994 56.2051 54.5085 56.4551 53.9972C56.7079 53.4858 57.0602 53.0866 57.5119 52.7997C57.9664 52.5128 58.4977 52.3693 59.1056 52.3693C59.475 52.3693 59.8329 52.4304 60.1795 52.5526C60.5261 52.6747 60.8372 52.8665 61.1127 53.1278C61.3883 53.3892 61.6056 53.7287 61.7647 54.1463C61.9238 54.5611 62.0034 55.0653 62.0034 55.6591V56.1108H56.8002V55.1562H60.7548C60.7548 54.821 60.6866 54.5241 60.5502 54.2656C60.4139 54.0043 60.2221 53.7983 59.975 53.6477C59.7306 53.4972 59.4437 53.4219 59.1142 53.4219C58.7562 53.4219 58.4437 53.5099 58.1767 53.6861C57.9125 53.8594 57.7079 54.0866 57.563 54.3679C57.421 54.6463 57.35 54.9489 57.35 55.2756V56.0213C57.35 56.4588 57.4267 56.831 57.5801 57.1378C57.7363 57.4446 57.9537 57.679 58.2321 57.8409C58.5105 58 58.8358 58.0795 59.2079 58.0795C59.4494 58.0795 59.6696 58.0455 59.8684 57.9773C60.0673 57.9062 60.2392 57.8011 60.3841 57.6619C60.5289 57.5227 60.6397 57.3509 60.7164 57.1463L61.9224 57.3636C61.8258 57.7187 61.6525 58.0298 61.4025 58.2969C61.1554 58.5611 60.8443 58.767 60.4693 58.9148C60.0971 59.0597 59.6724 59.1321 59.1951 59.1321Z" fill="#2E3338"/>
<rect x="0.5" y="0.5" width="89" height="109" stroke="#ADADAD"/>
</svg>
