<svg width="22" height="22" viewBox="0 0 22 22" fill="none" xmlns="http://www.w3.org/2000/svg">
<path d="M2.55384 21.8495C2.09385 21.8495 1.69498 21.6806 1.35721 21.3428C1.01946 21.0051 0.850586 20.6063 0.850586 20.1462V5.25385C0.850586 4.79223 1.01946 4.39195 1.35721 4.05302C1.69498 3.71407 2.09385 3.5446 2.55384 3.5446H12.6729L10.9696 5.25385H2.55384V20.1462H17.4462V11.6674L19.1555 9.95819V20.1462C19.1555 20.6063 18.986 21.0051 18.6471 21.3428C18.3081 21.6806 17.9079 21.8495 17.4462 21.8495H2.55384ZM14.4723 3.87014L15.637 5.00982L8.54786 12.068V14.1522H10.6071L17.7212 7.05005L18.849 8.17777L11.2799 15.7718H6.92829V11.4201L14.4723 3.87014ZM18.849 8.17777L14.4723 3.87014L16.9066 1.44189C17.2337 1.11471 17.6361 0.95212 18.1138 0.95412C18.5914 0.95612 18.997 1.12904 19.3305 1.47287L21.2392 3.40657C21.5584 3.7504 21.718 4.15326 21.718 4.61515C21.718 5.07701 21.548 5.4718 21.2082 5.7995L18.849 8.17777Z" fill="#3A6FB6"/>
</svg>
