<svg width="40" height="40" viewBox="0 0 40 40" fill="none" xmlns="http://www.w3.org/2000/svg">
<path d="M22 27.9656C21.8248 27.9659 21.6514 27.9315 21.4896 27.8644C21.3278 27.7974 21.1809 27.699 21.0573 27.5749L14.3906 20.9083C14.1407 20.6582 14.0002 20.3192 14.0002 19.9656C14.0002 19.612 14.1407 19.273 14.3906 19.0229L21.0573 12.3563C21.1803 12.2289 21.3274 12.1273 21.4901 12.0575C21.6528 11.9876 21.8277 11.9508 22.0048 11.9493C22.1818 11.9477 22.3574 11.9815 22.5212 12.0485C22.6851 12.1155 22.834 12.2146 22.9592 12.3397C23.0843 12.4649 23.1833 12.6138 23.2504 12.7777C23.3174 12.9415 23.3512 13.1171 23.3496 13.2941C23.3481 13.4712 23.3113 13.6461 23.2414 13.8088C23.1715 13.9715 23.07 14.1186 22.9426 14.2416L17.2193 19.9656L22.9426 25.6896C23.129 25.8761 23.256 26.1136 23.3074 26.3722C23.3588 26.6308 23.3324 26.8989 23.2315 27.1425C23.1306 27.3861 22.9598 27.5943 22.7406 27.7408C22.5214 27.8873 22.2636 27.9655 22 27.9656Z" fill="#1C3464"/>
<path d="M20 37.3346C15.2393 37.3346 11.1113 35.632 7.72996 32.2746C4.36929 28.8893 2.66663 24.762 2.66663 20.0013C2.66663 15.24 4.36996 11.1226 7.72862 7.7633C11.11 4.38197 15.2386 2.66797 20 2.66797C24.7626 2.66797 28.88 4.38264 32.2393 7.7653C35.6186 11.1213 37.3333 15.228 37.3333 19.968C37.3333 24.762 35.6193 28.8913 32.238 32.2726C28.8786 35.6313 24.7613 37.3346 20 37.3346ZM20 4.0013C15.6053 4.0013 11.7933 5.58463 8.67129 8.70597C5.57129 11.8066 3.99996 15.6066 3.99996 20.0013C3.99996 24.3966 5.57196 28.2093 8.67263 31.332C11.792 34.4293 15.604 36.0013 20 36.0013C24.3953 36.0013 28.1953 34.43 31.2953 31.33C34.4173 28.208 36 24.3966 36 20.0013C36 15.596 34.418 11.8073 31.2966 8.70797C28.194 5.58397 24.394 4.0013 20 4.0013Z" fill="#1C3464"/>
</svg>
