<svg width="30" height="30" viewBox="0 0 30 30" fill="none" xmlns="http://www.w3.org/2000/svg">
<path d="M27.123 11.707L18.293 2.87695C17.7305 2.31445 16.9687 1.99805 16.1719 1.99805H12.4277C12.375 1.9043 12.3223 1.81055 12.2578 1.7168C12.0937 1.45898 11.8945 1.22461 11.6719 1.01367C11.3379 0.697266 10.9336 0.439453 10.4766 0.263672C10.0254 0.0878906 9.52734 0 9 0C8.37305 0 7.78711 0.128906 7.27148 0.375C6.88477 0.5625 6.53906 0.808594 6.25195 1.10156C6.03516 1.32422 5.84766 1.56445 5.68945 1.82812C5.45508 2.2207 5.2793 2.64844 5.16797 3.09961C5.05664 3.55078 4.99805 4.01953 4.99805 4.5V13.5C4.99805 13.8691 5.07422 14.2207 5.21484 14.5312C5.32031 14.7656 5.46094 14.9766 5.61914 15.1582C5.86523 15.4336 6.1582 15.6387 6.48047 15.7793C6.79687 15.9199 7.14258 15.9961 7.48828 15.9961V16.002C7.5 16.002 7.51172 16.002 7.52344 16.002C7.53516 16.002 7.54688 16.002 7.55859 16.002C7.89844 15.9961 8.2207 15.9258 8.51367 15.7969C8.95312 15.6035 9.32812 15.293 9.58594 14.9004C9.71484 14.7012 9.82031 14.4844 9.89062 14.2559C9.96094 14.0215 10.002 13.7754 10.002 13.5234C10.002 13.5176 10.002 13.5059 10.002 13.5C10.002 13.4941 10.002 13.4941 10.002 13.4883V4.00195C10.002 3.45117 9.55664 3 9 3C8.44336 3 7.99805 3.44531 7.99805 4.00195V13.5059V13.5117V13.5176C7.99805 13.5879 7.98633 13.6465 7.96289 13.7051C7.92773 13.7871 7.86914 13.8633 7.79297 13.916C7.75781 13.9395 7.71094 13.9629 7.66992 13.9746C7.62305 13.9863 7.58203 13.998 7.5293 13.998H7.52344H7.51758H7.51172H7.5C7.44141 13.998 7.37109 13.9863 7.30664 13.9629C7.25977 13.9453 7.21875 13.9219 7.17773 13.8926C7.11914 13.8516 7.07812 13.7988 7.04883 13.7402C7.01953 13.6816 6.99609 13.6113 6.99609 13.5V4.5C6.99609 4.11328 7.04883 3.75 7.14258 3.43945C7.21289 3.20508 7.3125 3 7.42383 2.81836C7.50586 2.68359 7.59961 2.57227 7.70508 2.47266C7.85742 2.32617 8.0332 2.20898 8.24414 2.12695C8.44922 2.04492 8.69531 1.99805 9 1.99805C9.35742 1.99805 9.63867 2.06836 9.87305 2.17383C10.0488 2.25586 10.1953 2.36133 10.3301 2.49609C10.4297 2.5957 10.5234 2.71289 10.6055 2.8418C10.7285 3.04102 10.8281 3.28125 10.8984 3.55078C10.9688 3.82031 11.0039 4.13086 11.0039 4.45312V13.125C11.0039 13.6875 10.9102 14.2148 10.7461 14.6836C10.623 15.0352 10.4531 15.3574 10.2539 15.6328C9.94922 16.0547 9.57422 16.3828 9.11719 16.6172C8.66602 16.8516 8.13281 16.9863 7.5 16.9863C6.94336 16.9863 6.45703 16.875 6.04102 16.6934C5.72461 16.5527 5.44922 16.3652 5.20312 16.1426C4.83398 15.8027 4.53516 15.3691 4.33008 14.8594C4.125 14.3496 4.00781 13.7578 4.00781 13.125V7.99219C4.00781 7.44141 3.5625 6.99023 3.00586 6.99023C2.44922 6.99023 2.00391 7.43555 2.00391 7.99219V13.125C2.00391 13.9043 2.12695 14.6602 2.37891 15.3516C2.56641 15.873 2.81836 16.3652 3.13477 16.8047C3.60937 17.4668 4.23633 18.0176 4.98047 18.3984C5.58398 18.709 6.26953 18.9082 6.99609 18.9668V25.998C6.99609 26.5488 7.10742 27.0762 7.3125 27.5566C7.61719 28.2773 8.12109 28.8867 8.75977 29.3145C9.07617 29.5312 9.43359 29.7012 9.80859 29.8184C10.1836 29.9355 10.5879 30 10.998 30H24C24.5508 30 25.0781 29.8887 25.5586 29.6836C26.2793 29.3789 26.8887 28.875 27.3164 28.2363C27.5332 27.9199 27.7031 27.5625 27.8203 27.1875C27.9375 26.8125 28.002 26.4082 28.002 25.998V13.8281C28.002 13.0312 27.6855 12.2695 27.123 11.707ZM24.5742 11.9883H18.9961C18.8555 11.9883 18.7266 11.959 18.6094 11.9121C18.4336 11.8359 18.2754 11.707 18.1699 11.5488C18.1172 11.4668 18.0762 11.3789 18.0469 11.291C18.0176 11.1973 18 11.0977 18 10.9922V5.41406L24.5742 11.9883ZM25.8457 26.7832C25.6934 27.1406 25.4414 27.4453 25.1191 27.6621C24.9609 27.7676 24.7852 27.8555 24.5977 27.9141C24.4102 27.9727 24.2109 28.002 24 28.002H10.998C10.7168 28.002 10.459 27.9434 10.2187 27.8438C9.86133 27.6914 9.55664 27.4395 9.33984 27.1172C9.23437 26.959 9.14648 26.7832 9.08789 26.5957C9.0293 26.4082 9 26.209 9 25.998V18.7969C9.26953 18.7266 9.5332 18.6328 9.7793 18.5215C10.2949 18.293 10.7578 17.9824 11.1562 17.6191C11.7598 17.0684 12.2227 16.377 12.5332 15.6152C12.8437 14.8477 13.002 14.0039 13.002 13.1309V4.45898C13.002 4.30664 12.9961 4.1543 12.9844 4.00195H16.002V10.998C16.002 11.4082 16.084 11.8066 16.2363 12.1641C16.4648 12.7031 16.8457 13.1602 17.3203 13.4824C17.5605 13.6465 17.8242 13.7695 18.1055 13.8574C18.3867 13.9453 18.6914 13.9922 18.9961 13.9922H26.0039V26.0039C26.0039 26.2852 25.9453 26.543 25.8457 26.7832Z" fill="black"/>
<path d="M14.8563 26.1483H3.75221C3.29792 26.1483 2.92969 25.7801 2.92969 25.3258V21.2131C2.92969 20.7589 3.29792 20.3906 3.75221 20.3906H14.8563C15.3106 20.3906 15.6789 20.7589 15.6789 21.2131V25.3258C15.6789 25.7801 15.3106 26.1483 14.8563 26.1483Z" fill="#FF5050"/>
<path d="M6.21941 21.625H4.57437C4.34706 21.625 4.16309 21.8089 4.16309 22.0363V24.5039C4.16309 24.7312 4.34702 24.9152 4.57437 24.9152C4.80167 24.9152 4.98565 24.7312 4.98565 24.5039V24.0926H6.21946C6.89979 24.0926 7.45326 23.5391 7.45326 22.8588C7.45317 22.1785 6.89974 21.625 6.21941 21.625ZM6.21941 23.2701H4.98561V22.4476H6.21941C6.44634 22.4476 6.63069 22.6319 6.63069 22.8589C6.63065 23.0857 6.4463 23.2701 6.21941 23.2701Z" fill="white"/>
<path d="M9.50934 21.625H8.27554C8.04824 21.625 7.86426 21.8089 7.86426 22.0363V24.5039C7.86426 24.7312 8.04819 24.9152 8.27554 24.9152H9.50934C10.4166 24.9152 11.1544 24.1774 11.1544 23.2701C11.1544 22.3629 10.4166 21.625 9.50934 21.625ZM9.50934 24.0926H8.68682V22.4476H9.50934C9.96274 22.4476 10.3319 22.8167 10.3319 23.2701C10.3319 23.7235 9.96279 24.0926 9.50934 24.0926Z" fill="white"/>
<path d="M14.033 21.625H11.9767C11.7494 21.625 11.5654 21.8089 11.5654 22.0363V24.5039C11.5654 24.7312 11.7494 24.9152 11.9767 24.9152C12.204 24.9152 12.388 24.7312 12.388 24.5039V23.6814H13.2105C13.4378 23.6814 13.6218 23.4974 13.6218 23.2701C13.6218 23.0427 13.4379 22.8588 13.2105 22.8588H12.388V22.4475H14.033C14.2603 22.4475 14.4443 22.2636 14.4443 22.0362C14.4443 21.8089 14.2603 21.625 14.033 21.625Z" fill="white"/>
</svg>
