<svg width="13" height="12" viewBox="0 0 13 12" fill="none" xmlns="http://www.w3.org/2000/svg">
<path d="M12.7843 10.8649L10.4511 8.72727C12.2729 6.57494 12.0811 3.5086 9.98771 1.5774C8.88506 0.560197 7.41487 0 5.8488 0C4.28273 0 2.81254 0.560197 1.7099 1.5774C0.607253 2.59459 0 3.95086 0 5.39558C0 6.8403 0.607253 8.19656 1.7099 9.21376C2.81254 10.231 4.28273 10.7912 5.8488 10.7912C7.14321 10.7912 8.42163 10.3931 9.44438 9.64128L11.7615 11.8084C11.9053 11.941 12.0811 12 12.2729 12C12.4647 12 12.6404 11.9263 12.7843 11.8084C13.0719 11.5577 13.0719 11.1302 12.7843 10.8649ZM10.2594 5.39558C10.2594 6.48649 9.79594 7.50369 8.96497 8.27027C8.13399 9.03686 7.01537 9.46437 5.8488 9.46437C4.68224 9.46437 3.56361 9.03686 2.73264 8.27027C1.90166 7.50369 1.43823 6.47175 1.43823 5.39558C1.43823 4.30467 1.90166 3.28747 2.73264 2.52088C3.56361 1.7543 4.68224 1.32678 5.8488 1.32678C7.03135 1.32678 8.13399 1.7543 8.96497 2.52088C9.79594 3.28747 10.2594 4.30467 10.2594 5.39558Z" fill="#5C6670" fill-opacity="0.8"/>
</svg>
