<svg width="19" height="18" viewBox="0 0 19 18" fill="none" xmlns="http://www.w3.org/2000/svg">
<path d="M0 16V0L16.6 7H15.125C14.725 7 14.3458 7.00833 13.9875 7.025C13.6292 7.04167 13.3167 7.075 13.05 7.125L1.5 2.25V6.45L7.55 8L1.5 9.5V13.675L8.55 10.725C8.41666 11.0083 8.30416 11.3375 8.2125 11.7125C8.12083 12.0875 8.05833 12.3917 8.025 12.625L0 16ZM14.25 18C12.95 18 11.8333 17.5375 10.9 16.6125C9.96666 15.6875 9.5 14.575 9.5 13.275C9.5 11.9583 9.96666 10.8333 10.9 9.9C11.8333 8.96667 12.95 8.5 14.25 8.5C15.55 8.5 16.6667 8.96667 17.6 9.9C18.5333 10.8333 19 11.9583 19 13.275C19 14.575 18.5333 15.6875 17.6 16.6125C16.6667 17.5375 15.55 18 14.25 18ZM16 15.85L16.725 15.075L14.675 13.025V10.025H13.65V13.5L16 15.85ZM1.5 10.725V2.25V13.675V10.725Z" fill="#3A6FB6"/>
</svg>
