<svg width="52" height="65" viewBox="0 0 52 65" fill="none" xmlns="http://www.w3.org/2000/svg">
<path d="M23.7833 54.3945H28.5333V38.4063L35.0628 44.9358L38.3878 41.6108L26 29.5585L13.7894 41.7691L17.1144 45.0941L23.7833 38.4063V54.3945ZM5.58698 64.6397C4.13037 64.6397 2.86727 64.1049 1.79767 63.0354C0.72813 61.9658 0.193359 60.7027 0.193359 59.246V5.75344C0.193359 4.29166 0.72813 3.02412 1.79767 1.95083C2.86727 0.877492 4.13037 0.34082 5.58698 0.34082H34.204L51.8255 17.9624V59.246C51.8255 60.7027 51.2889 61.9658 50.2155 63.0354C49.1422 64.1049 47.8747 64.6397 46.4129 64.6397H5.58698ZM31.4504 20.4784V5.75344H5.58698V59.246H46.4129V20.4784H31.4504Z" fill="#C3CAD2"/>
</svg>
